<svg xmlns="http://www.w3.org/2000/svg" width="32" height="30.056" viewBox="0 0 32 30.056">
  <g id="feedback" transform="translate(390 -290)">
    <g id="Union_1" data-name="Union 1" transform="translate(-390.202 290)" fill="none">
      <path d="M.215,22.233A2.021,2.021,0,0,1,.2,22V2a2,2,0,0,1,2-2h28a2,2,0,0,1,2,2V22a2,2,0,0,1-2,2H7.937L.215,30.056Z" stroke="none"/>
      <path d="M 2.215099334716797 25.94565582275391 L 6.703049182891846 22.42646026611328 L 7.246519565582275 22.00029945373535 L 7.937159538269043 22.00029945373535 L 30.20199966430664 21.99959945678711 L 30.20219993591309 2 L 2.201599359512329 1.999799966812134 L 2.201729297637939 22.0023193359375 L 2.215099334716797 22.11738014221191 L 2.215099334716797 22.23321914672852 L 2.215099334716797 25.94565582275391 M 0.2150993943214417 30.05550003051758 L 0.2150993943214417 22.23321914672852 C 0.2061893939971924 22.15656089782715 0.2015993893146515 22.07866096496582 0.2015993893146515 21.99959945678711 L 0.2015993893146515 1.999799966812134 C 0.2015993893146515 0.8955000042915344 1.097099423408508 1.525878801089675e-08 2.202299356460571 1.525878801089675e-08 L 30.20219993591309 1.525878801089675e-08 C 31.30649948120117 1.525878801089675e-08 32.20199966430664 0.8955000042915344 32.20199966430664 1.999799966812134 L 32.20199966430664 21.99959945678711 C 32.20199966430664 23.10479927062988 31.30649948120117 24.00029945373535 30.20219993591309 24.00029945373535 L 7.937159538269043 24.00029945373535 L 0.2150993943214417 30.05550003051758 Z" stroke="none" fill="#f5f5f5"/>
    </g>
    <g id="Group_226" data-name="Group 226" transform="translate(-54 -2.564)">
      <line id="Line_6" data-name="Line 6" y2="9.287" transform="translate(-320.5 298.5)" fill="none" stroke="#428efe" stroke-linecap="round" stroke-width="2"/>
      <g id="Group_225" data-name="Group 225" transform="translate(-320.5 311.208)">
        <line id="Line_7" data-name="Line 7" fill="none" stroke="#428efe" stroke-linecap="round" stroke-width="2.5"/>
      </g>
    </g>
  </g>
</svg>
