<svg id="Group_210" data-name="Group 210" xmlns="http://www.w3.org/2000/svg" width="85.691" height="43.696" viewBox="0 0 85.691 43.696">
  <g id="Group_209" data-name="Group 209">
    <path id="Path_263" data-name="Path 263" d="M269.029,238.649a13.727,13.727,0,0,0-.292-1.694l-34.4-.03a14.025,14.025,0,0,1,1.016-3.855,13.816,13.816,0,0,1,3.067-4.528,13.606,13.606,0,0,1,4.5-2.89,14.147,14.147,0,0,1,16.007,3.417l5.432-5.316a20.359,20.359,0,0,0-6.864-4.849,23.906,23.906,0,0,0-17.672-.117,21.435,21.435,0,0,0-7.01,4.557,21.916,21.916,0,0,0-4.732,6.924,20.934,20.934,0,0,0-1.665,6.659h-.223a20.894,20.894,0,0,0-1.667-6.659,21.889,21.889,0,0,0-4.732-6.924,21.418,21.418,0,0,0-7.01-4.557,23.906,23.906,0,0,0-17.672.117,20.379,20.379,0,0,0-6.864,4.849l5.434,5.316a14.852,14.852,0,0,1,16.007-3.417,13.581,13.581,0,0,1,4.5,2.89,13.8,13.8,0,0,1,3.069,4.528,14.036,14.036,0,0,1,1.016,3.855l-34.4.03a13.738,13.738,0,0,0-.292,1.694,16.785,16.785,0,0,0-.117,1.986,23.2,23.2,0,0,0,1.227,7.595,17.6,17.6,0,0,0,3.855,6.366,19.38,19.38,0,0,0,6.718,4.616,23.052,23.052,0,0,0,8.939,1.635,22.65,22.65,0,0,0,8.587-1.635,21.367,21.367,0,0,0,7.01-4.557,21.85,21.85,0,0,0,4.732-6.924,20.338,20.338,0,0,0,1.291-4.064h.975a20.442,20.442,0,0,0,1.289,4.064,21.876,21.876,0,0,0,4.732,6.924,21.385,21.385,0,0,0,7.01,4.557,22.664,22.664,0,0,0,8.589,1.635,23.038,23.038,0,0,0,8.937-1.635,19.35,19.35,0,0,0,6.718-4.616,17.6,17.6,0,0,0,3.857-6.366,23.2,23.2,0,0,0,1.227-7.595A17.13,17.13,0,0,0,269.029,238.649Zm-51.778,6.28a13.552,13.552,0,0,1-3.1,4.528,13.958,13.958,0,0,1-4.526,2.892,16.089,16.089,0,0,1-11.129.058,13.2,13.2,0,0,1-3.943-2.482,9.483,9.483,0,0,1-2.017-2.659,15.1,15.1,0,0,1-1.313-3.592l26.49,0A12.857,12.857,0,0,1,217.251,244.928Zm42.811,2.336a9.478,9.478,0,0,1-2.015,2.659,13.2,13.2,0,0,1-3.943,2.482,16.089,16.089,0,0,1-11.129-.058,13.983,13.983,0,0,1-4.528-2.892,13.543,13.543,0,0,1-3.1-4.528,12.852,12.852,0,0,1-.464-1.26h13.346v0h13.144A15.108,15.108,0,0,1,260.062,247.265Z" transform="translate(-183.455 -217.151)" fill="#2f8d46"/>
  </g>
</svg>
