<svg xmlns="http://www.w3.org/2000/svg" width="36.374" height="30.423" viewBox="0 0 36.374 30.423"><defs><style>.a{fill:none;}.a,.b{stroke:#fff;stroke-linecap:round;stroke-linejoin:round;stroke-miterlimit:10;stroke-width:2px;}.b{fill:#428efe;}</style></defs><g transform="translate(1.078 1)"><path class="a" d="M35.209,28.156a5.165,5.165,0,0,1-5.15,5.149H6.15A5.165,5.165,0,0,1,1,28.156v-18.1A5.165,5.165,0,0,1,6.15,4.9H30.059a5.165,5.165,0,0,1,5.15,5.15Z" transform="translate(-1 -4.905)"/><path class="b" d="M35.209,29.733l-7-8.135-7.85,7.5L11.989,18.284l-10.925,9s-.4,4.556.3,6.33A5.6,5.6,0,0,0,6.35,36.757H30.331s2.729-.423,4-1.691S35.209,29.733,35.209,29.733Z" transform="translate(-1 -8.335)"/></g></svg>