<svg xmlns="http://www.w3.org/2000/svg" width="37.696" height="37.696" viewBox="0 0 37.696 37.696"><defs><style>.a{fill:#fff;}.b{fill:#428efe;}</style></defs><path class="a" d="M27.066,37.7H6.073a3.187,3.187,0,0,1-3.014-3.328V3.327A3.186,3.186,0,0,1,6.073,0H27.066a3.186,3.186,0,0,1,3.013,3.327V11.75a.785.785,0,0,1-1.571,0V3.327a1.645,1.645,0,0,0-1.443-1.757H6.073A1.646,1.646,0,0,0,4.63,3.327v31.04a1.646,1.646,0,0,0,1.443,1.758H27.066a1.646,1.646,0,0,0,1.443-1.758V24.109a.785.785,0,0,1,1.571,0V34.368A3.186,3.186,0,0,1,27.066,37.7Z" transform="translate(-0.657)"/><g transform="translate(0 5.604)"><path class="a" d="M6.084,8.707H.785a.785.785,0,0,1,0-1.571h5.3a.785.785,0,0,1,0,1.571Z" transform="translate(0 -7.136)"/><path class="a" d="M6.084,16.639H.785a.785.785,0,0,1,0-1.571h5.3a.785.785,0,0,1,0,1.571Z" transform="translate(0 -8.839)"/><path class="a" d="M6.084,24.571H.785A.785.785,0,0,1,.785,23h5.3a.785.785,0,0,1,0,1.571Z" transform="translate(0 -10.542)"/><path class="a" d="M6.084,32.5H.785a.785.785,0,0,1,0-1.571h5.3a.785.785,0,0,1,0,1.571Z" transform="translate(0 -12.244)"/><path class="a" d="M6.084,40.434H.785a.785.785,0,1,1,0-1.571h5.3a.785.785,0,1,1,0,1.571Z" transform="translate(0 -13.947)"/></g><path class="a" d="M23.46,35.487a.786.786,0,0,1-.765-.965l1.9-8.107a.768.768,0,0,1,.112-.256L36.26,8.84a.786.786,0,0,1,1.089-.218l4.865,3.245a.785.785,0,0,1,.218,1.088L30.881,30.274a.771.771,0,0,1-.195.2l-6.768,4.862A.78.78,0,0,1,23.46,35.487ZM26.1,26.912,24.7,32.841l4.95-3.556L40.69,12.738l-3.558-2.373Z" transform="translate(-4.868 -1.823)"/><path class="a" d="M30.666,35.452a.785.785,0,0,1-.725-.483c-.957-2.293-3.977-2.823-4.008-2.829a.785.785,0,1,1,.259-1.549c.159.027,3.91.688,5.2,3.774a.784.784,0,0,1-.724,1.087Z" transform="translate(-5.426 -6.565)"/><path class="a" d="M29.652,29.614A.785.785,0,0,1,29,28.393l8.677-13.011a.785.785,0,1,1,1.307.872l-8.677,13.01A.785.785,0,0,1,29.652,29.614Z" transform="translate(-6.197 -3.227)"/><path class="a" d="M42.675,17.273a.78.78,0,0,1-.435-.132l-4.614-3.077a.785.785,0,1,1,.872-1.307l4.614,3.077a.785.785,0,0,1-.437,1.439Z" transform="translate(-8.002 -2.71)"/><path class="b" d="M25.338,11.177H15.575a.785.785,0,1,1,0-1.571h9.762a.785.785,0,0,1,0,1.571Z" transform="translate(-3.175 -2.062)"/><path class="b" d="M25.338,19.352H15.575a.785.785,0,0,1,0-1.571h9.762a.785.785,0,0,1,0,1.571Z" transform="translate(-3.175 -3.817)"/><path class="b" d="M21.768,27.527H15.575a.785.785,0,0,1,0-1.571h6.192a.785.785,0,0,1,0,1.571Z" transform="translate(-3.175 -5.572)"/></svg>