<svg xmlns="http://www.w3.org/2000/svg" width="23.642" height="28.567" viewBox="0 0 23.642 28.567"><defs><style>.a{fill:#ecf4ff;}</style></defs><g transform="translate(0 0)"><path class="a" d="M11.821,118.448A11.823,11.823,0,0,1,8.685,95.226a.985.985,0,0,1,.521,1.9,9.851,9.851,0,1,0,5.442.061.985.985,0,1,1,.565-1.887,11.822,11.822,0,0,1-3.393,23.147Zm0,0" transform="translate(0 -89.88)"/><path class="a" d="M195.192,12.806a.985.985,0,0,1-.985-.985V.986a.985.985,0,1,1,1.97,0V11.821A.985.985,0,0,1,195.192,12.806Zm0,0" transform="translate(-183.371)"/></g></svg>